<mxfile host="app.diagrams.net" agent="Mozilla/5.0 (Windows NT 10.0; Win64; x64) AppleWebKit/537.36 (KHTML, like Gecko) Chrome/128.0.0.0 Safari/537.36" version="24.7.12">
  <diagram name="Page-1" id="i_u_yrghnK8iJM_USmO5">
    <mxGraphModel dx="880" dy="1568" grid="1" gridSize="10" guides="1" tooltips="1" connect="1" arrows="1" fold="1" page="1" pageScale="1" pageWidth="850" pageHeight="1100" math="0" shadow="0">
      <root>
        <mxCell id="0" />
        <mxCell id="1" parent="0" />
        <mxCell id="1aF113buXw0eMV6wPPo_-1" value="Q.1 Prepare a class diagram for the following object diagram that shows a portion of Europe." style="text;strokeColor=none;align=center;fillColor=none;html=1;verticalAlign=middle;whiteSpace=wrap;rounded=0;fontStyle=1" vertex="1" parent="1">
          <mxGeometry x="190" y="-390" width="510" height="30" as="geometry" />
        </mxCell>
        <mxCell id="1aF113buXw0eMV6wPPo_-13" value="Country" style="swimlane;fontStyle=0;childLayout=stackLayout;horizontal=1;startSize=30;horizontalStack=0;resizeParent=1;resizeParentMax=0;resizeLast=0;collapsible=1;marginBottom=0;whiteSpace=wrap;html=1;" vertex="1" parent="1">
          <mxGeometry x="130" y="-310" width="140" height="60" as="geometry" />
        </mxCell>
        <mxCell id="1aF113buXw0eMV6wPPo_-14" value="Name:string" style="text;strokeColor=none;fillColor=none;align=center;verticalAlign=middle;spacingLeft=4;spacingRight=4;overflow=hidden;points=[[0,0.5],[1,0.5]];portConstraint=eastwest;rotatable=0;whiteSpace=wrap;html=1;" vertex="1" parent="1aF113buXw0eMV6wPPo_-13">
          <mxGeometry y="30" width="140" height="30" as="geometry" />
        </mxCell>
        <mxCell id="1aF113buXw0eMV6wPPo_-18" value="County" style="swimlane;fontStyle=0;childLayout=stackLayout;horizontal=1;startSize=30;horizontalStack=0;resizeParent=1;resizeParentMax=0;resizeLast=0;collapsible=1;marginBottom=0;whiteSpace=wrap;html=1;" vertex="1" parent="1">
          <mxGeometry x="400" y="-310" width="140" height="60" as="geometry" />
        </mxCell>
        <mxCell id="1aF113buXw0eMV6wPPo_-19" value="Name:string" style="text;strokeColor=none;fillColor=none;align=center;verticalAlign=middle;spacingLeft=4;spacingRight=4;overflow=hidden;points=[[0,0.5],[1,0.5]];portConstraint=eastwest;rotatable=0;whiteSpace=wrap;html=1;" vertex="1" parent="1aF113buXw0eMV6wPPo_-18">
          <mxGeometry y="30" width="140" height="30" as="geometry" />
        </mxCell>
        <mxCell id="1aF113buXw0eMV6wPPo_-20" value="Country" style="swimlane;fontStyle=0;childLayout=stackLayout;horizontal=1;startSize=30;horizontalStack=0;resizeParent=1;resizeParentMax=0;resizeLast=0;collapsible=1;marginBottom=0;whiteSpace=wrap;html=1;" vertex="1" parent="1">
          <mxGeometry x="660" y="-310" width="140" height="60" as="geometry" />
        </mxCell>
        <mxCell id="1aF113buXw0eMV6wPPo_-21" value="Name:string" style="text;strokeColor=none;fillColor=none;align=center;verticalAlign=middle;spacingLeft=4;spacingRight=4;overflow=hidden;points=[[0,0.5],[1,0.5]];portConstraint=eastwest;rotatable=0;whiteSpace=wrap;html=1;" vertex="1" parent="1aF113buXw0eMV6wPPo_-20">
          <mxGeometry y="30" width="140" height="30" as="geometry" />
        </mxCell>
        <mxCell id="1aF113buXw0eMV6wPPo_-22" value="" style="endArrow=none;html=1;rounded=0;entryX=1;entryY=0.5;entryDx=0;entryDy=0;exitX=0;exitY=0.5;exitDx=0;exitDy=0;" edge="1" parent="1" source="1aF113buXw0eMV6wPPo_-18" target="1aF113buXw0eMV6wPPo_-13">
          <mxGeometry width="50" height="50" relative="1" as="geometry">
            <mxPoint x="400" y="-279.51" as="sourcePoint" />
            <mxPoint x="270" y="-280.5" as="targetPoint" />
            <Array as="points">
              <mxPoint x="330" y="-279.51" />
            </Array>
          </mxGeometry>
        </mxCell>
        <mxCell id="1aF113buXw0eMV6wPPo_-23" value="" style="endArrow=none;html=1;rounded=0;entryX=0;entryY=0.5;entryDx=0;entryDy=0;exitX=1;exitY=0.5;exitDx=0;exitDy=0;" edge="1" parent="1" source="1aF113buXw0eMV6wPPo_-18" target="1aF113buXw0eMV6wPPo_-20">
          <mxGeometry width="50" height="50" relative="1" as="geometry">
            <mxPoint x="420" y="-300" as="sourcePoint" />
            <mxPoint x="470" y="-350" as="targetPoint" />
          </mxGeometry>
        </mxCell>
        <mxCell id="1aF113buXw0eMV6wPPo_-24" value="Borders" style="text;strokeColor=none;align=center;fillColor=none;html=1;verticalAlign=middle;whiteSpace=wrap;rounded=0;" vertex="1" parent="1">
          <mxGeometry x="310" y="-310" width="60" height="30" as="geometry" />
        </mxCell>
        <mxCell id="1aF113buXw0eMV6wPPo_-26" value="Borders" style="text;strokeColor=none;align=center;fillColor=none;html=1;verticalAlign=middle;whiteSpace=wrap;rounded=0;" vertex="1" parent="1">
          <mxGeometry x="570" y="-310" width="60" height="30" as="geometry" />
        </mxCell>
        <mxCell id="1aF113buXw0eMV6wPPo_-27" value="&lt;div&gt;Q.2 Prepare a class diagram for object diagram given in Figure -2. Explain your multiplicity decisions.&lt;/div&gt;&lt;div&gt;What is the smallest number of points required to construct a polygon? Does it make a difference&lt;/div&gt;&lt;div&gt;whether or not point may be shared between polygons? Your answer should address the fact that&lt;/div&gt;&lt;div&gt;points are ordered.&lt;/div&gt;" style="text;strokeColor=none;align=center;fillColor=none;html=1;verticalAlign=middle;whiteSpace=wrap;rounded=0;fontStyle=1" vertex="1" parent="1">
          <mxGeometry x="140" y="-180" width="640" height="30" as="geometry" />
        </mxCell>
        <mxCell id="1aF113buXw0eMV6wPPo_-29" value="Point" style="swimlane;fontStyle=0;childLayout=stackLayout;horizontal=1;startSize=30;horizontalStack=0;resizeParent=1;resizeParentMax=0;resizeLast=0;collapsible=1;marginBottom=0;whiteSpace=wrap;html=1;" vertex="1" parent="1">
          <mxGeometry x="150" y="-90" width="140" height="90" as="geometry" />
        </mxCell>
        <mxCell id="1aF113buXw0eMV6wPPo_-30" value="xCoord:int" style="text;strokeColor=none;fillColor=none;align=left;verticalAlign=middle;spacingLeft=4;spacingRight=4;overflow=hidden;points=[[0,0.5],[1,0.5]];portConstraint=eastwest;rotatable=0;whiteSpace=wrap;html=1;" vertex="1" parent="1aF113buXw0eMV6wPPo_-29">
          <mxGeometry y="30" width="140" height="30" as="geometry" />
        </mxCell>
        <mxCell id="1aF113buXw0eMV6wPPo_-31" value="YCoord:int" style="text;strokeColor=none;fillColor=none;align=left;verticalAlign=middle;spacingLeft=4;spacingRight=4;overflow=hidden;points=[[0,0.5],[1,0.5]];portConstraint=eastwest;rotatable=0;whiteSpace=wrap;html=1;" vertex="1" parent="1aF113buXw0eMV6wPPo_-29">
          <mxGeometry y="60" width="140" height="30" as="geometry" />
        </mxCell>
        <mxCell id="1aF113buXw0eMV6wPPo_-33" value="Point" style="swimlane;fontStyle=0;childLayout=stackLayout;horizontal=1;startSize=30;horizontalStack=0;resizeParent=1;resizeParentMax=0;resizeLast=0;collapsible=1;marginBottom=0;whiteSpace=wrap;html=1;" vertex="1" parent="1">
          <mxGeometry x="610" y="-90" width="140" height="90" as="geometry" />
        </mxCell>
        <mxCell id="1aF113buXw0eMV6wPPo_-34" value="xCoord:int" style="text;strokeColor=none;fillColor=none;align=left;verticalAlign=middle;spacingLeft=4;spacingRight=4;overflow=hidden;points=[[0,0.5],[1,0.5]];portConstraint=eastwest;rotatable=0;whiteSpace=wrap;html=1;" vertex="1" parent="1aF113buXw0eMV6wPPo_-33">
          <mxGeometry y="30" width="140" height="30" as="geometry" />
        </mxCell>
        <mxCell id="1aF113buXw0eMV6wPPo_-35" value="YCoord:int" style="text;strokeColor=none;fillColor=none;align=left;verticalAlign=middle;spacingLeft=4;spacingRight=4;overflow=hidden;points=[[0,0.5],[1,0.5]];portConstraint=eastwest;rotatable=0;whiteSpace=wrap;html=1;" vertex="1" parent="1aF113buXw0eMV6wPPo_-33">
          <mxGeometry y="60" width="140" height="30" as="geometry" />
        </mxCell>
        <mxCell id="1aF113buXw0eMV6wPPo_-36" value="Point" style="swimlane;fontStyle=0;childLayout=stackLayout;horizontal=1;startSize=30;horizontalStack=0;resizeParent=1;resizeParentMax=0;resizeLast=0;collapsible=1;marginBottom=0;whiteSpace=wrap;html=1;" vertex="1" parent="1">
          <mxGeometry x="150" y="140" width="140" height="90" as="geometry" />
        </mxCell>
        <mxCell id="1aF113buXw0eMV6wPPo_-37" value="xCoord:int" style="text;strokeColor=none;fillColor=none;align=left;verticalAlign=middle;spacingLeft=4;spacingRight=4;overflow=hidden;points=[[0,0.5],[1,0.5]];portConstraint=eastwest;rotatable=0;whiteSpace=wrap;html=1;" vertex="1" parent="1aF113buXw0eMV6wPPo_-36">
          <mxGeometry y="30" width="140" height="30" as="geometry" />
        </mxCell>
        <mxCell id="1aF113buXw0eMV6wPPo_-38" value="YCoord:int" style="text;strokeColor=none;fillColor=none;align=left;verticalAlign=middle;spacingLeft=4;spacingRight=4;overflow=hidden;points=[[0,0.5],[1,0.5]];portConstraint=eastwest;rotatable=0;whiteSpace=wrap;html=1;" vertex="1" parent="1aF113buXw0eMV6wPPo_-36">
          <mxGeometry y="60" width="140" height="30" as="geometry" />
        </mxCell>
        <mxCell id="1aF113buXw0eMV6wPPo_-39" value="Point" style="swimlane;fontStyle=0;childLayout=stackLayout;horizontal=1;startSize=30;horizontalStack=0;resizeParent=1;resizeParentMax=0;resizeLast=0;collapsible=1;marginBottom=0;whiteSpace=wrap;html=1;" vertex="1" parent="1">
          <mxGeometry x="610" y="140" width="140" height="90" as="geometry" />
        </mxCell>
        <mxCell id="1aF113buXw0eMV6wPPo_-40" value="xCoord:int" style="text;strokeColor=none;fillColor=none;align=left;verticalAlign=middle;spacingLeft=4;spacingRight=4;overflow=hidden;points=[[0,0.5],[1,0.5]];portConstraint=eastwest;rotatable=0;whiteSpace=wrap;html=1;" vertex="1" parent="1aF113buXw0eMV6wPPo_-39">
          <mxGeometry y="30" width="140" height="30" as="geometry" />
        </mxCell>
        <mxCell id="1aF113buXw0eMV6wPPo_-41" value="YCoord:int" style="text;strokeColor=none;fillColor=none;align=left;verticalAlign=middle;spacingLeft=4;spacingRight=4;overflow=hidden;points=[[0,0.5],[1,0.5]];portConstraint=eastwest;rotatable=0;whiteSpace=wrap;html=1;" vertex="1" parent="1aF113buXw0eMV6wPPo_-39">
          <mxGeometry y="60" width="140" height="30" as="geometry" />
        </mxCell>
        <mxCell id="1aF113buXw0eMV6wPPo_-42" value="Polygon" style="swimlane;fontStyle=0;childLayout=stackLayout;horizontal=1;startSize=30;horizontalStack=0;resizeParent=1;resizeParentMax=0;resizeLast=0;collapsible=1;marginBottom=0;whiteSpace=wrap;html=1;" vertex="1" parent="1">
          <mxGeometry x="380" y="40" width="140" height="60" as="geometry" />
        </mxCell>
        <mxCell id="1aF113buXw0eMV6wPPo_-48" value="" style="endArrow=none;html=1;rounded=0;entryX=-0.007;entryY=-0.033;entryDx=0;entryDy=0;entryPerimeter=0;exitX=0.75;exitY=0;exitDx=0;exitDy=0;" edge="1" parent="1" source="1aF113buXw0eMV6wPPo_-42" target="1aF113buXw0eMV6wPPo_-35">
          <mxGeometry width="50" height="50" relative="1" as="geometry">
            <mxPoint x="510" y="-31" as="sourcePoint" />
            <mxPoint x="470" y="-20" as="targetPoint" />
            <Array as="points">
              <mxPoint x="485" y="-31" />
            </Array>
          </mxGeometry>
        </mxCell>
        <mxCell id="1aF113buXw0eMV6wPPo_-49" value="" style="endArrow=none;html=1;rounded=0;exitX=1.007;exitY=0;exitDx=0;exitDy=0;exitPerimeter=0;entryX=0.25;entryY=0;entryDx=0;entryDy=0;" edge="1" parent="1" source="1aF113buXw0eMV6wPPo_-31" target="1aF113buXw0eMV6wPPo_-42">
          <mxGeometry width="50" height="50" relative="1" as="geometry">
            <mxPoint x="330" y="-20" as="sourcePoint" />
            <mxPoint x="380" y="-70" as="targetPoint" />
            <Array as="points">
              <mxPoint x="415" y="-30" />
            </Array>
          </mxGeometry>
        </mxCell>
        <mxCell id="1aF113buXw0eMV6wPPo_-50" value="" style="endArrow=none;html=1;rounded=0;exitX=1;exitY=-0.067;exitDx=0;exitDy=0;exitPerimeter=0;entryX=0.25;entryY=1;entryDx=0;entryDy=0;" edge="1" parent="1" source="1aF113buXw0eMV6wPPo_-38" target="1aF113buXw0eMV6wPPo_-42">
          <mxGeometry width="50" height="50" relative="1" as="geometry">
            <mxPoint x="420" y="130" as="sourcePoint" />
            <mxPoint x="470" y="80" as="targetPoint" />
            <Array as="points">
              <mxPoint x="415" y="198" />
            </Array>
          </mxGeometry>
        </mxCell>
        <mxCell id="1aF113buXw0eMV6wPPo_-51" value="" style="endArrow=none;html=1;rounded=0;entryX=0.007;entryY=-0.067;entryDx=0;entryDy=0;entryPerimeter=0;exitX=0.75;exitY=1;exitDx=0;exitDy=0;" edge="1" parent="1" source="1aF113buXw0eMV6wPPo_-42" target="1aF113buXw0eMV6wPPo_-41">
          <mxGeometry width="50" height="50" relative="1" as="geometry">
            <mxPoint x="420" y="130" as="sourcePoint" />
            <mxPoint x="470" y="80" as="targetPoint" />
            <Array as="points">
              <mxPoint x="485" y="198" />
            </Array>
          </mxGeometry>
        </mxCell>
        <mxCell id="1aF113buXw0eMV6wPPo_-52" value="0..*" style="text;strokeColor=none;align=center;fillColor=none;html=1;verticalAlign=middle;whiteSpace=wrap;rounded=0;" vertex="1" parent="1">
          <mxGeometry x="300" y="-60" width="60" height="30" as="geometry" />
        </mxCell>
        <mxCell id="1aF113buXw0eMV6wPPo_-53" value="0..*" style="text;strokeColor=none;align=center;fillColor=none;html=1;verticalAlign=middle;whiteSpace=wrap;rounded=0;" vertex="1" parent="1">
          <mxGeometry x="300" y="170" width="60" height="30" as="geometry" />
        </mxCell>
        <mxCell id="1aF113buXw0eMV6wPPo_-54" value="0..*" style="text;strokeColor=none;align=center;fillColor=none;html=1;verticalAlign=middle;whiteSpace=wrap;rounded=0;" vertex="1" parent="1">
          <mxGeometry x="540" y="-60" width="60" height="30" as="geometry" />
        </mxCell>
        <mxCell id="1aF113buXw0eMV6wPPo_-55" value="0..*" style="text;strokeColor=none;align=center;fillColor=none;html=1;verticalAlign=middle;whiteSpace=wrap;rounded=0;" vertex="1" parent="1">
          <mxGeometry x="540" y="170" width="60" height="30" as="geometry" />
        </mxCell>
        <mxCell id="1aF113buXw0eMV6wPPo_-56" value="3..*" style="text;strokeColor=none;align=center;fillColor=none;html=1;verticalAlign=middle;whiteSpace=wrap;rounded=0;" vertex="1" parent="1">
          <mxGeometry x="360" y="10" width="60" height="30" as="geometry" />
        </mxCell>
        <mxCell id="1aF113buXw0eMV6wPPo_-57" value="3..*" style="text;strokeColor=none;align=center;fillColor=none;html=1;verticalAlign=middle;whiteSpace=wrap;rounded=0;" vertex="1" parent="1">
          <mxGeometry x="360" y="100" width="60" height="30" as="geometry" />
        </mxCell>
        <mxCell id="1aF113buXw0eMV6wPPo_-58" value="3..*" style="text;strokeColor=none;align=center;fillColor=none;html=1;verticalAlign=middle;whiteSpace=wrap;rounded=0;" vertex="1" parent="1">
          <mxGeometry x="480" y="10" width="60" height="30" as="geometry" />
        </mxCell>
        <mxCell id="1aF113buXw0eMV6wPPo_-59" value="3..*" style="text;strokeColor=none;align=center;fillColor=none;html=1;verticalAlign=middle;whiteSpace=wrap;rounded=0;" vertex="1" parent="1">
          <mxGeometry x="480" y="100" width="60" height="30" as="geometry" />
        </mxCell>
        <mxCell id="1aF113buXw0eMV6wPPo_-60" value="&lt;p&gt;&lt;strong&gt;Multiplicity Decisions&lt;/strong&gt;:&lt;/p&gt;&lt;ul&gt;&lt;li&gt;&lt;strong&gt;&lt;code&gt;Polygon&lt;/code&gt; to &lt;code&gt;Point&lt;/code&gt; Multiplicity&lt;/strong&gt;: A &lt;code&gt;Polygon&lt;/code&gt; must have a minimum of three &lt;code&gt;Point&lt;/code&gt; objects (&lt;code&gt;3..*&lt;/code&gt;). This reflects the minimum number of points needed to create a closed polygon.&lt;/li&gt;&lt;li&gt;&lt;strong&gt;&lt;code&gt;Point&lt;/code&gt; to &lt;code&gt;Polygon&lt;/code&gt; Multiplicity&lt;/strong&gt;: A &lt;code&gt;Point&lt;/code&gt; can belong to zero or more &lt;code&gt;Polygon&lt;/code&gt; objects (&lt;code&gt;0..*&lt;/code&gt;). Points can be shared between different polygons, allowing for intersections or overlaps.&lt;/li&gt;&lt;/ul&gt;" style="text;strokeColor=none;align=center;fillColor=none;html=1;verticalAlign=middle;whiteSpace=wrap;rounded=0;fontStyle=0" vertex="1" parent="1">
          <mxGeometry x="90" y="290" width="710" height="30" as="geometry" />
        </mxCell>
        <mxCell id="1aF113buXw0eMV6wPPo_-61" value="&lt;p&gt;&lt;strong&gt;Smallest Number of Points for a Polygon&lt;/strong&gt;:&lt;/p&gt;&lt;ul&gt;&lt;li&gt;The smallest number of points required to construct a polygon is &lt;strong&gt;3&lt;/strong&gt;. A polygon with fewer than three points cannot form a closed geometric figure.&lt;/li&gt;&lt;/ul&gt;" style="text;strokeColor=none;align=center;fillColor=none;html=1;verticalAlign=middle;whiteSpace=wrap;rounded=0;" vertex="1" parent="1">
          <mxGeometry x="220" y="380" width="450" height="30" as="geometry" />
        </mxCell>
        <mxCell id="1aF113buXw0eMV6wPPo_-62" value="&lt;p&gt;&lt;strong&gt;Impact of Shared Points Between Polygons&lt;/strong&gt;:&lt;/p&gt;&lt;ul&gt;&lt;li&gt;If points are shared between polygons, a single &lt;code&gt;Point&lt;/code&gt; instance can be associated with multiple &lt;code&gt;Polygon&lt;/code&gt; objects. This allows for complex geometric arrangements.&lt;/li&gt;&lt;li&gt;The ordering of points in each &lt;code&gt;Polygon&lt;/code&gt; is crucial for defining its shape and orientation. Even when points are shared, the specific sequence of points determines the unique shape of each polygon.&lt;/li&gt;&lt;/ul&gt;" style="text;strokeColor=none;align=center;fillColor=none;html=1;verticalAlign=middle;whiteSpace=wrap;rounded=0;" vertex="1" parent="1">
          <mxGeometry x="105" y="480" width="680" height="30" as="geometry" />
        </mxCell>
        <mxCell id="1aF113buXw0eMV6wPPo_-63" value="&#xa;Q.3 Figure 3 is a partially completed class diagram of an air transportation system. Add multiplicities&#xa;in the diagram. Also add association names to unlevelled associations. &#xa;&#xa;" style="text;strokeColor=none;align=center;fillColor=none;html=1;verticalAlign=middle;whiteSpace=wrap;rounded=0;fontStyle=1" vertex="1" parent="1">
          <mxGeometry x="80" y="610" width="710" height="30" as="geometry" />
        </mxCell>
        <mxCell id="1aF113buXw0eMV6wPPo_-64" value="City" style="swimlane;fontStyle=1;childLayout=stackLayout;horizontal=1;startSize=30;horizontalStack=0;resizeParent=1;resizeParentMax=0;resizeLast=0;collapsible=1;marginBottom=0;whiteSpace=wrap;html=1;" vertex="1" parent="1">
          <mxGeometry x="100" y="680" width="140" height="60" as="geometry" />
        </mxCell>
        <mxCell id="1aF113buXw0eMV6wPPo_-65" value="name" style="text;strokeColor=none;fillColor=none;align=center;verticalAlign=middle;spacingLeft=4;spacingRight=4;overflow=hidden;points=[[0,0.5],[1,0.5]];portConstraint=eastwest;rotatable=0;whiteSpace=wrap;html=1;" vertex="1" parent="1aF113buXw0eMV6wPPo_-64">
          <mxGeometry y="30" width="140" height="30" as="geometry" />
        </mxCell>
        <mxCell id="1aF113buXw0eMV6wPPo_-68" value="Airport&lt;span style=&quot;color: rgba(0, 0, 0, 0); font-family: monospace; font-size: 0px; font-weight: 400; text-align: start; text-wrap: nowrap;&quot;&gt;%3CmxGraphModel%3E%3Croot%3E%3CmxCell%20id%3D%220%22%2F%3E%3CmxCell%20id%3D%221%22%20parent%3D%220%22%2F%3E%3CmxCell%20id%3D%222%22%20value%3D%22City%22%20style%3D%22swimlane%3BfontStyle%3D1%3BchildLayout%3DstackLayout%3Bhorizontal%3D1%3BstartSize%3D30%3BhorizontalStack%3D0%3BresizeParent%3D1%3BresizeParentMax%3D0%3BresizeLast%3D0%3Bcollapsible%3D1%3BmarginBottom%3D0%3BwhiteSpace%3Dwrap%3Bhtml%3D1%3B%22%20vertex%3D%221%22%20parent%3D%221%22%3E%3CmxGeometry%20x%3D%22100%22%20y%3D%22680%22%20width%3D%22140%22%20height%3D%2260%22%20as%3D%22geometry%22%2F%3E%3C%2FmxCell%3E%3CmxCell%20id%3D%223%22%20value%3D%22name%22%20style%3D%22text%3BstrokeColor%3Dnone%3BfillColor%3Dnone%3Balign%3Dcenter%3BverticalAlign%3Dmiddle%3BspacingLeft%3D4%3BspacingRight%3D4%3Boverflow%3Dhidden%3Bpoints%3D%5B%5B0%2C0.5%5D%2C%5B1%2C0.5%5D%5D%3BportConstraint%3Deastwest%3Brotatable%3D0%3BwhiteSpace%3Dwrap%3Bhtml%3D1%3B%22%20vertex%3D%221%22%20parent%3D%222%22%3E%3CmxGeometry%20y%3D%2230%22%20width%3D%22140%22%20height%3D%2230%22%20as%3D%22geometry%22%2F%3E%3C%2FmxCell%3E%3C%2Froot%3E%3C%2FmxGraphModel%3E&lt;/span&gt;" style="swimlane;fontStyle=1;childLayout=stackLayout;horizontal=1;startSize=30;horizontalStack=0;resizeParent=1;resizeParentMax=0;resizeLast=0;collapsible=1;marginBottom=0;whiteSpace=wrap;html=1;" vertex="1" parent="1">
          <mxGeometry x="100" y="810" width="140" height="60" as="geometry" />
        </mxCell>
        <mxCell id="1aF113buXw0eMV6wPPo_-69" value="name" style="text;strokeColor=none;fillColor=none;align=center;verticalAlign=middle;spacingLeft=4;spacingRight=4;overflow=hidden;points=[[0,0.5],[1,0.5]];portConstraint=eastwest;rotatable=0;whiteSpace=wrap;html=1;" vertex="1" parent="1aF113buXw0eMV6wPPo_-68">
          <mxGeometry y="30" width="140" height="30" as="geometry" />
        </mxCell>
        <mxCell id="1aF113buXw0eMV6wPPo_-70" value="Airline" style="swimlane;fontStyle=1;childLayout=stackLayout;horizontal=1;startSize=30;horizontalStack=0;resizeParent=1;resizeParentMax=0;resizeLast=0;collapsible=1;marginBottom=0;whiteSpace=wrap;html=1;" vertex="1" parent="1">
          <mxGeometry x="430" y="680" width="140" height="60" as="geometry" />
        </mxCell>
        <mxCell id="1aF113buXw0eMV6wPPo_-71" value="name" style="text;strokeColor=none;fillColor=none;align=center;verticalAlign=middle;spacingLeft=4;spacingRight=4;overflow=hidden;points=[[0,0.5],[1,0.5]];portConstraint=eastwest;rotatable=0;whiteSpace=wrap;html=1;" vertex="1" parent="1aF113buXw0eMV6wPPo_-70">
          <mxGeometry y="30" width="140" height="30" as="geometry" />
        </mxCell>
        <mxCell id="1aF113buXw0eMV6wPPo_-72" value="Pilot" style="swimlane;fontStyle=1;childLayout=stackLayout;horizontal=1;startSize=30;horizontalStack=0;resizeParent=1;resizeParentMax=0;resizeLast=0;collapsible=1;marginBottom=0;whiteSpace=wrap;html=1;" vertex="1" parent="1">
          <mxGeometry x="640" y="680" width="140" height="60" as="geometry" />
        </mxCell>
        <mxCell id="1aF113buXw0eMV6wPPo_-73" value="name" style="text;strokeColor=none;fillColor=none;align=center;verticalAlign=middle;spacingLeft=4;spacingRight=4;overflow=hidden;points=[[0,0.5],[1,0.5]];portConstraint=eastwest;rotatable=0;whiteSpace=wrap;html=1;" vertex="1" parent="1aF113buXw0eMV6wPPo_-72">
          <mxGeometry y="30" width="140" height="30" as="geometry" />
        </mxCell>
        <mxCell id="1aF113buXw0eMV6wPPo_-76" value="Passenger&lt;span style=&quot;color: rgba(0, 0, 0, 0); font-family: monospace; font-size: 0px; font-weight: 400; text-align: start; text-wrap: nowrap;&quot;&gt;%3CmxGraphModel%3E%3Croot%3E%3CmxCell%20id%3D%220%22%2F%3E%3CmxCell%20id%3D%221%22%20parent%3D%220%22%2F%3E%3CmxCell%20id%3D%222%22%20value%3D%22City%22%20style%3D%22swimlane%3BfontStyle%3D1%3BchildLayout%3DstackLayout%3Bhorizontal%3D1%3BstartSize%3D30%3BhorizontalStack%3D0%3BresizeParent%3D1%3BresizeParentMax%3D0%3BresizeLast%3D0%3Bcollapsible%3D1%3BmarginBottom%3D0%3BwhiteSpace%3Dwrap%3Bhtml%3D1%3B%22%20vertex%3D%221%22%20parent%3D%221%22%3E%3CmxGeometry%20x%3D%22100%22%20y%3D%22680%22%20width%3D%22140%22%20height%3D%2260%22%20as%3D%22geometry%22%2F%3E%3C%2FmxCell%3E%3CmxCell%20id%3D%223%22%20value%3D%22name%22%20style%3D%22text%3BstrokeColor%3Dnone%3BfillColor%3Dnone%3Balign%3Dcenter%3BverticalAlign%3Dmiddle%3BspacingLeft%3D4%3BspacingRight%3D4%3Boverflow%3Dhidden%3Bpoints%3D%5B%5B0%2C0.5%5D%2C%5B1%2C0.5%5D%5D%3BportConstraint%3Deastwest%3Brotatable%3D0%3BwhiteSpace%3Dwrap%3Bhtml%3D1%3B%22%20vertex%3D%221%22%20parent%3D%222%22%3E%3CmxGeometry%20y%3D%2230%22%20width%3D%22140%22%20height%3D%2230%22%20as%3D%22geometry%22%2F%3E%3C%2FmxCell%3E%3C%2Froot%3E%3C%2FmxGraphModel%3E&lt;/span&gt;&lt;span style=&quot;color: rgba(0, 0, 0, 0); font-family: monospace; font-size: 0px; font-weight: 400; text-align: start; text-wrap: nowrap;&quot;&gt;%3CmxGraphModel%3E%3Croot%3E%3CmxCell%20id%3D%220%22%2F%3E%3CmxCell%20id%3D%221%22%20parent%3D%220%22%2F%3E%3CmxCell%20id%3D%222%22%20value%3D%22City%22%20style%3D%22swimlane%3BfontStyle%3D1%3BchildLayout%3DstackLayout%3Bhorizontal%3D1%3BstartSize%3D30%3BhorizontalStack%3D0%3BresizeParent%3D1%3BresizeParentMax%3D0%3BresizeLast%3D0%3Bcollapsible%3D1%3BmarginBottom%3D0%3BwhiteSpace%3Dwrap%3Bhtml%3D1%3B%22%20vertex%3D%221%22%20parent%3D%221%22%3E%3CmxGeometry%20x%3D%22100%22%20y%3D%22680%22%20width%3D%22140%22%20height%3D%2260%22%20as%3D%22geometry%22%2F%3E%3C%2FmxCell%3E%3CmxCell%20id%3D%223%22%20value%3D%22name%22%20style%3D%22text%3BstrokeColor%3Dnone%3BfillColor%3Dnone%3Balign%3Dcenter%3BverticalAlign%3Dmiddle%3BspacingLeft%3D4%3BspacingRight%3D4%3Boverflow%3Dhidden%3Bpoints%3D%5B%5B0%2C0.5%5D%2C%5B1%2C0.5%5D%5D%3BportConstraint%3Deastwest%3Brotatable%3D0%3BwhiteSpace%3Dwrap%3Bhtml%3D1%3B%22%20vertex%3D%221%22%20parent%3D%222%22%3E%3CmxGeometry%20y%3D%2230%22%20width%3D%22140%22%20height%3D%2230%22%20as%3D%22geometry%22%2F%3E%3C%2FmxCell%3E%3C%2Froot%3E%3C%2FmxGraphModel%3E&lt;/span&gt;" style="swimlane;fontStyle=1;childLayout=stackLayout;horizontal=1;startSize=30;horizontalStack=0;resizeParent=1;resizeParentMax=0;resizeLast=0;collapsible=1;marginBottom=0;whiteSpace=wrap;html=1;" vertex="1" parent="1">
          <mxGeometry x="500" y="960" width="140" height="60" as="geometry" />
        </mxCell>
        <mxCell id="1aF113buXw0eMV6wPPo_-77" value="name" style="text;strokeColor=none;fillColor=none;align=center;verticalAlign=middle;spacingLeft=4;spacingRight=4;overflow=hidden;points=[[0,0.5],[1,0.5]];portConstraint=eastwest;rotatable=0;whiteSpace=wrap;html=1;" vertex="1" parent="1aF113buXw0eMV6wPPo_-76">
          <mxGeometry y="30" width="140" height="30" as="geometry" />
        </mxCell>
        <mxCell id="1aF113buXw0eMV6wPPo_-78" value="Flight" style="swimlane;fontStyle=1;childLayout=stackLayout;horizontal=1;startSize=30;horizontalStack=0;resizeParent=1;resizeParentMax=0;resizeLast=0;collapsible=1;marginBottom=0;whiteSpace=wrap;html=1;" vertex="1" parent="1">
          <mxGeometry x="530" y="820" width="140" height="60" as="geometry" />
        </mxCell>
        <mxCell id="1aF113buXw0eMV6wPPo_-79" value="flightNum&lt;span style=&quot;color: rgba(0, 0, 0, 0); font-family: monospace; font-size: 0px; text-align: start; text-wrap: nowrap;&quot;&gt;%3CmxGraphModel%3E%3Croot%3E%3CmxCell%20id%3D%220%22%2F%3E%3CmxCell%20id%3D%221%22%20parent%3D%220%22%2F%3E%3CmxCell%20id%3D%222%22%20value%3D%22City%22%20style%3D%22swimlane%3BfontStyle%3D1%3BchildLayout%3DstackLayout%3Bhorizontal%3D1%3BstartSize%3D30%3BhorizontalStack%3D0%3BresizeParent%3D1%3BresizeParentMax%3D0%3BresizeLast%3D0%3Bcollapsible%3D1%3BmarginBottom%3D0%3BwhiteSpace%3Dwrap%3Bhtml%3D1%3B%22%20vertex%3D%221%22%20parent%3D%221%22%3E%3CmxGeometry%20x%3D%22100%22%20y%3D%22680%22%20width%3D%22140%22%20height%3D%2260%22%20as%3D%22geometry%22%2F%3E%3C%2FmxCell%3E%3CmxCell%20id%3D%223%22%20value%3D%22name%22%20style%3D%22text%3BstrokeColor%3Dnone%3BfillColor%3Dnone%3Balign%3Dcenter%3BverticalAlign%3Dmiddle%3BspacingLeft%3D4%3BspacingRight%3D4%3Boverflow%3Dhidden%3Bpoints%3D%5B%5B0%2C0.5%5D%2C%5B1%2C0.5%5D%5D%3BportConstraint%3Deastwest%3Brotatable%3D0%3BwhiteSpace%3Dwrap%3Bhtml%3D1%3B%22%20vertex%3D%221%22%20parent%3D%222%22%3E%3CmxGeometry%20y%3D%2230%22%20width%3D%22140%22%20height%3D%2230%22%20as%3D%22geometry%22%2F%3E%3C%2FmxCell%3E%3C%2Froot%3E%3C%2FmxGraphModel%3E&lt;/span&gt;" style="text;strokeColor=none;fillColor=none;align=center;verticalAlign=middle;spacingLeft=4;spacingRight=4;overflow=hidden;points=[[0,0.5],[1,0.5]];portConstraint=eastwest;rotatable=0;whiteSpace=wrap;html=1;" vertex="1" parent="1aF113buXw0eMV6wPPo_-78">
          <mxGeometry y="30" width="140" height="30" as="geometry" />
        </mxCell>
        <mxCell id="1aF113buXw0eMV6wPPo_-80" value="Plane" style="swimlane;fontStyle=1;childLayout=stackLayout;horizontal=1;startSize=30;horizontalStack=0;resizeParent=1;resizeParentMax=0;resizeLast=0;collapsible=1;marginBottom=0;whiteSpace=wrap;html=1;" vertex="1" parent="1">
          <mxGeometry x="850" y="760" width="140" height="60" as="geometry" />
        </mxCell>
        <mxCell id="1aF113buXw0eMV6wPPo_-81" value="model" style="text;strokeColor=none;fillColor=none;align=center;verticalAlign=middle;spacingLeft=4;spacingRight=4;overflow=hidden;points=[[0,0.5],[1,0.5]];portConstraint=eastwest;rotatable=0;whiteSpace=wrap;html=1;" vertex="1" parent="1aF113buXw0eMV6wPPo_-80">
          <mxGeometry y="30" width="140" height="30" as="geometry" />
        </mxCell>
        <mxCell id="1aF113buXw0eMV6wPPo_-83" value="Seat" style="swimlane;fontStyle=1;childLayout=stackLayout;horizontal=1;startSize=30;horizontalStack=0;resizeParent=1;resizeParentMax=0;resizeLast=0;collapsible=1;marginBottom=0;whiteSpace=wrap;html=1;" vertex="1" parent="1">
          <mxGeometry x="850" y="910" width="140" height="60" as="geometry" />
        </mxCell>
        <mxCell id="1aF113buXw0eMV6wPPo_-84" value="location" style="text;strokeColor=none;fillColor=none;align=center;verticalAlign=middle;spacingLeft=4;spacingRight=4;overflow=hidden;points=[[0,0.5],[1,0.5]];portConstraint=eastwest;rotatable=0;whiteSpace=wrap;html=1;" vertex="1" parent="1aF113buXw0eMV6wPPo_-83">
          <mxGeometry y="30" width="140" height="30" as="geometry" />
        </mxCell>
        <mxCell id="1aF113buXw0eMV6wPPo_-85" value="" style="endArrow=none;html=1;rounded=0;exitX=0.5;exitY=0;exitDx=0;exitDy=0;" edge="1" parent="1" source="1aF113buXw0eMV6wPPo_-68" target="1aF113buXw0eMV6wPPo_-65">
          <mxGeometry width="50" height="50" relative="1" as="geometry">
            <mxPoint x="590" y="780" as="sourcePoint" />
            <mxPoint x="640" y="730" as="targetPoint" />
            <Array as="points">
              <mxPoint x="170" y="770" />
            </Array>
          </mxGeometry>
        </mxCell>
        <mxCell id="1aF113buXw0eMV6wPPo_-86" value="" style="endArrow=none;html=1;rounded=0;entryX=0.821;entryY=1;entryDx=0;entryDy=0;entryPerimeter=0;exitX=0.107;exitY=0;exitDx=0;exitDy=0;exitPerimeter=0;" edge="1" parent="1" source="1aF113buXw0eMV6wPPo_-78" target="1aF113buXw0eMV6wPPo_-71">
          <mxGeometry width="50" height="50" relative="1" as="geometry">
            <mxPoint x="240" y="780" as="sourcePoint" />
            <mxPoint x="290" y="730" as="targetPoint" />
          </mxGeometry>
        </mxCell>
        <mxCell id="1aF113buXw0eMV6wPPo_-87" value="" style="endArrow=none;html=1;rounded=0;entryX=0;entryY=0.5;entryDx=0;entryDy=0;exitX=1;exitY=0.5;exitDx=0;exitDy=0;" edge="1" parent="1" source="1aF113buXw0eMV6wPPo_-70" target="1aF113buXw0eMV6wPPo_-72">
          <mxGeometry width="50" height="50" relative="1" as="geometry">
            <mxPoint x="240" y="780" as="sourcePoint" />
            <mxPoint x="290" y="730" as="targetPoint" />
          </mxGeometry>
        </mxCell>
        <mxCell id="1aF113buXw0eMV6wPPo_-88" value="" style="endArrow=none;html=1;rounded=0;exitX=0.843;exitY=0;exitDx=0;exitDy=0;exitPerimeter=0;entryX=0.05;entryY=1;entryDx=0;entryDy=0;entryPerimeter=0;" edge="1" parent="1" source="1aF113buXw0eMV6wPPo_-78" target="1aF113buXw0eMV6wPPo_-73">
          <mxGeometry width="50" height="50" relative="1" as="geometry">
            <mxPoint x="240" y="780" as="sourcePoint" />
            <mxPoint x="290" y="730" as="targetPoint" />
          </mxGeometry>
        </mxCell>
        <mxCell id="1aF113buXw0eMV6wPPo_-89" value="" style="endArrow=none;html=1;rounded=0;exitX=0.75;exitY=0;exitDx=0;exitDy=0;entryX=0.514;entryY=1;entryDx=0;entryDy=0;entryPerimeter=0;" edge="1" parent="1" source="1aF113buXw0eMV6wPPo_-76" target="1aF113buXw0eMV6wPPo_-79">
          <mxGeometry width="50" height="50" relative="1" as="geometry">
            <mxPoint x="240" y="780" as="sourcePoint" />
            <mxPoint x="602" y="878" as="targetPoint" />
          </mxGeometry>
        </mxCell>
        <mxCell id="1aF113buXw0eMV6wPPo_-90" value="" style="endArrow=none;html=1;rounded=0;exitX=1;exitY=0.25;exitDx=0;exitDy=0;entryX=0;entryY=0.5;entryDx=0;entryDy=0;" edge="1" parent="1" source="1aF113buXw0eMV6wPPo_-78" target="1aF113buXw0eMV6wPPo_-81">
          <mxGeometry width="50" height="50" relative="1" as="geometry">
            <mxPoint x="1030" y="840" as="sourcePoint" />
            <mxPoint x="1080" y="790" as="targetPoint" />
          </mxGeometry>
        </mxCell>
        <mxCell id="1aF113buXw0eMV6wPPo_-91" value="" style="endArrow=none;html=1;rounded=0;exitX=0.25;exitY=0;exitDx=0;exitDy=0;entryX=0.25;entryY=1;entryDx=0;entryDy=0;entryPerimeter=0;" edge="1" parent="1" source="1aF113buXw0eMV6wPPo_-83" target="1aF113buXw0eMV6wPPo_-81">
          <mxGeometry width="50" height="50" relative="1" as="geometry">
            <mxPoint x="1030" y="840" as="sourcePoint" />
            <mxPoint x="1080" y="790" as="targetPoint" />
          </mxGeometry>
        </mxCell>
        <mxCell id="1aF113buXw0eMV6wPPo_-92" value="" style="endArrow=none;dashed=1;html=1;dashPattern=1 3;strokeWidth=2;rounded=0;entryX=0;entryY=0.25;entryDx=0;entryDy=0;" edge="1" parent="1" target="1aF113buXw0eMV6wPPo_-83">
          <mxGeometry width="50" height="50" relative="1" as="geometry">
            <mxPoint x="610" y="925" as="sourcePoint" />
            <mxPoint x="1080" y="790" as="targetPoint" />
          </mxGeometry>
        </mxCell>
        <mxCell id="1aF113buXw0eMV6wPPo_-93" value="" style="endArrow=none;html=1;rounded=0;exitX=1;exitY=0.25;exitDx=0;exitDy=0;entryX=0;entryY=0.25;entryDx=0;entryDy=0;" edge="1" parent="1" source="1aF113buXw0eMV6wPPo_-68" target="1aF113buXw0eMV6wPPo_-78">
          <mxGeometry width="50" height="50" relative="1" as="geometry">
            <mxPoint x="550" y="840" as="sourcePoint" />
            <mxPoint x="600" y="790" as="targetPoint" />
          </mxGeometry>
        </mxCell>
        <mxCell id="1aF113buXw0eMV6wPPo_-94" value="" style="endArrow=none;html=1;rounded=0;exitX=1;exitY=0.5;exitDx=0;exitDy=0;entryX=0;entryY=0.5;entryDx=0;entryDy=0;" edge="1" parent="1" source="1aF113buXw0eMV6wPPo_-69" target="1aF113buXw0eMV6wPPo_-79">
          <mxGeometry width="50" height="50" relative="1" as="geometry">
            <mxPoint x="550" y="840" as="sourcePoint" />
            <mxPoint x="600" y="790" as="targetPoint" />
          </mxGeometry>
        </mxCell>
        <mxCell id="1aF113buXw0eMV6wPPo_-95" value="0..*" style="text;strokeColor=none;align=center;fillColor=none;html=1;verticalAlign=middle;whiteSpace=wrap;rounded=0;" vertex="1" parent="1">
          <mxGeometry x="110" y="740" width="60" height="30" as="geometry" />
        </mxCell>
        <mxCell id="1aF113buXw0eMV6wPPo_-96" value="0..*" style="text;strokeColor=none;align=center;fillColor=none;html=1;verticalAlign=middle;whiteSpace=wrap;rounded=0;" vertex="1" parent="1">
          <mxGeometry x="590" y="930" width="60" height="30" as="geometry" />
        </mxCell>
        <mxCell id="1aF113buXw0eMV6wPPo_-97" value="1..*" style="text;strokeColor=none;align=center;fillColor=none;html=1;verticalAlign=middle;whiteSpace=wrap;rounded=0;" vertex="1" parent="1">
          <mxGeometry x="170" y="780" width="60" height="30" as="geometry" />
        </mxCell>
        <mxCell id="1aF113buXw0eMV6wPPo_-98" value="1..*" style="text;strokeColor=none;align=center;fillColor=none;html=1;verticalAlign=middle;whiteSpace=wrap;rounded=0;" vertex="1" parent="1">
          <mxGeometry x="350" y="830" width="60" height="30" as="geometry" />
        </mxCell>
        <mxCell id="1aF113buXw0eMV6wPPo_-101" value="1..*" style="text;strokeColor=none;align=center;fillColor=none;html=1;verticalAlign=middle;whiteSpace=wrap;rounded=0;" vertex="1" parent="1">
          <mxGeometry x="490" y="740" width="60" height="30" as="geometry" />
        </mxCell>
        <mxCell id="1aF113buXw0eMV6wPPo_-103" value="1..*" style="text;strokeColor=none;align=center;fillColor=none;html=1;verticalAlign=middle;whiteSpace=wrap;rounded=0;" vertex="1" parent="1">
          <mxGeometry x="650" y="740" width="60" height="30" as="geometry" />
        </mxCell>
        <mxCell id="1aF113buXw0eMV6wPPo_-104" value="1..*" style="text;strokeColor=none;align=center;fillColor=none;html=1;verticalAlign=middle;whiteSpace=wrap;rounded=0;" vertex="1" parent="1">
          <mxGeometry x="730" y="820" width="60" height="30" as="geometry" />
        </mxCell>
        <mxCell id="1aF113buXw0eMV6wPPo_-105" value="1..*" style="text;strokeColor=none;align=center;fillColor=none;html=1;verticalAlign=middle;whiteSpace=wrap;rounded=0;" vertex="1" parent="1">
          <mxGeometry x="830" y="870" width="60" height="30" as="geometry" />
        </mxCell>
        <mxCell id="1aF113buXw0eMV6wPPo_-106" value="Depart" style="text;strokeColor=none;align=center;fillColor=none;html=1;verticalAlign=middle;whiteSpace=wrap;rounded=0;fontStyle=1" vertex="1" parent="1">
          <mxGeometry x="340" y="800" width="60" height="30" as="geometry" />
        </mxCell>
        <mxCell id="1aF113buXw0eMV6wPPo_-107" value="Arrive" style="text;strokeColor=none;align=center;fillColor=none;html=1;verticalAlign=middle;whiteSpace=wrap;rounded=0;fontStyle=1" vertex="1" parent="1">
          <mxGeometry x="340" y="860" width="60" height="30" as="geometry" />
        </mxCell>
        <mxCell id="1aF113buXw0eMV6wPPo_-108" value="manage" style="text;strokeColor=none;align=center;fillColor=none;html=1;verticalAlign=middle;whiteSpace=wrap;rounded=0;fontStyle=1" vertex="1" parent="1">
          <mxGeometry x="570" y="710" width="60" height="30" as="geometry" />
        </mxCell>
        <mxCell id="1aF113buXw0eMV6wPPo_-111" value="Operates" style="text;strokeColor=none;align=center;fillColor=none;html=1;verticalAlign=middle;whiteSpace=wrap;rounded=0;fontStyle=1" vertex="1" parent="1">
          <mxGeometry x="570" y="790" width="60" height="30" as="geometry" />
        </mxCell>
        <mxCell id="1aF113buXw0eMV6wPPo_-113" value="Used by" style="text;strokeColor=none;align=center;fillColor=none;html=1;verticalAlign=middle;whiteSpace=wrap;rounded=0;fontStyle=1" vertex="1" parent="1">
          <mxGeometry x="720" y="790" width="60" height="30" as="geometry" />
        </mxCell>
        <mxCell id="1aF113buXw0eMV6wPPo_-114" value="Having" style="text;strokeColor=none;align=center;fillColor=none;html=1;verticalAlign=middle;whiteSpace=wrap;rounded=0;fontStyle=1" vertex="1" parent="1">
          <mxGeometry x="880" y="850" width="60" height="30" as="geometry" />
        </mxCell>
        <mxCell id="1aF113buXw0eMV6wPPo_-115" value="Booking" style="text;strokeColor=none;align=center;fillColor=none;html=1;verticalAlign=middle;whiteSpace=wrap;rounded=0;fontStyle=1" vertex="1" parent="1">
          <mxGeometry x="550" y="910" width="60" height="30" as="geometry" />
        </mxCell>
        <mxCell id="1aF113buXw0eMV6wPPo_-116" value="&#xa;Q.4 We want to model a system for management of flights and pilots. An airline operates flights. Each&#xa;airline has an ID. Each flight has an ID a departure airport and an arrival airport: an airport as a unique&#xa;identifier. Each flight has a pilot and a co-pilot, and it uses an aircraft of a certain type; a flight has also&#xa;a departure time and an arrival time. An airline owns a set of aircrafts of different types. An aircraft&#xa;can be in a working state or it can be under repair. In a particular moment an aircraft can be landed&#xa;or airborne. A company has a set of pilots: each pilot has an experience level: 1 is minimum, 3 is&#xa;maximum. A type of aeroplane may need a particular number of pilots, with a different role (e.g.:&#xa;captain, co-pilot, navigator): there must be at least one captain and one co-pilot, and a captain must&#xa;have a level 3.&#xa;&#xa;" style="text;strokeColor=none;align=center;fillColor=none;html=1;verticalAlign=middle;whiteSpace=wrap;rounded=0;fontSize=12;" vertex="1" parent="1">
          <mxGeometry x="30" y="1150" width="840" height="30" as="geometry" />
        </mxCell>
        <mxCell id="1aF113buXw0eMV6wPPo_-124" value="Airline" style="swimlane;fontStyle=0;childLayout=stackLayout;horizontal=1;startSize=30;horizontalStack=0;resizeParent=1;resizeParentMax=0;resizeLast=0;collapsible=1;marginBottom=0;whiteSpace=wrap;html=1;" vertex="1" parent="1">
          <mxGeometry x="120" y="1280" width="140" height="90" as="geometry" />
        </mxCell>
        <mxCell id="1aF113buXw0eMV6wPPo_-125" value="ID" style="text;strokeColor=none;fillColor=none;align=left;verticalAlign=middle;spacingLeft=4;spacingRight=4;overflow=hidden;points=[[0,0.5],[1,0.5]];portConstraint=eastwest;rotatable=0;whiteSpace=wrap;html=1;" vertex="1" parent="1aF113buXw0eMV6wPPo_-124">
          <mxGeometry y="30" width="140" height="30" as="geometry" />
        </mxCell>
        <mxCell id="1aF113buXw0eMV6wPPo_-126" value="Name" style="text;strokeColor=none;fillColor=none;align=left;verticalAlign=middle;spacingLeft=4;spacingRight=4;overflow=hidden;points=[[0,0.5],[1,0.5]];portConstraint=eastwest;rotatable=0;whiteSpace=wrap;html=1;" vertex="1" parent="1aF113buXw0eMV6wPPo_-124">
          <mxGeometry y="60" width="140" height="30" as="geometry" />
        </mxCell>
        <mxCell id="1aF113buXw0eMV6wPPo_-128" value="Flight" style="swimlane;fontStyle=0;childLayout=stackLayout;horizontal=1;startSize=30;horizontalStack=0;resizeParent=1;resizeParentMax=0;resizeLast=0;collapsible=1;marginBottom=0;whiteSpace=wrap;html=1;" vertex="1" parent="1">
          <mxGeometry x="440" y="1250" width="140" height="120" as="geometry" />
        </mxCell>
        <mxCell id="1aF113buXw0eMV6wPPo_-129" value="ID" style="text;strokeColor=none;fillColor=none;align=left;verticalAlign=middle;spacingLeft=4;spacingRight=4;overflow=hidden;points=[[0,0.5],[1,0.5]];portConstraint=eastwest;rotatable=0;whiteSpace=wrap;html=1;" vertex="1" parent="1aF113buXw0eMV6wPPo_-128">
          <mxGeometry y="30" width="140" height="30" as="geometry" />
        </mxCell>
        <mxCell id="1aF113buXw0eMV6wPPo_-130" value="arrival_time" style="text;strokeColor=none;fillColor=none;align=left;verticalAlign=middle;spacingLeft=4;spacingRight=4;overflow=hidden;points=[[0,0.5],[1,0.5]];portConstraint=eastwest;rotatable=0;whiteSpace=wrap;html=1;" vertex="1" parent="1aF113buXw0eMV6wPPo_-128">
          <mxGeometry y="60" width="140" height="30" as="geometry" />
        </mxCell>
        <mxCell id="1aF113buXw0eMV6wPPo_-131" value="departure_time" style="text;strokeColor=none;fillColor=none;align=left;verticalAlign=middle;spacingLeft=4;spacingRight=4;overflow=hidden;points=[[0,0.5],[1,0.5]];portConstraint=eastwest;rotatable=0;whiteSpace=wrap;html=1;" vertex="1" parent="1aF113buXw0eMV6wPPo_-128">
          <mxGeometry y="90" width="140" height="30" as="geometry" />
        </mxCell>
        <mxCell id="1aF113buXw0eMV6wPPo_-132" value="Airport" style="swimlane;fontStyle=0;childLayout=stackLayout;horizontal=1;startSize=30;horizontalStack=0;resizeParent=1;resizeParentMax=0;resizeLast=0;collapsible=1;marginBottom=0;whiteSpace=wrap;html=1;" vertex="1" parent="1">
          <mxGeometry x="680" y="1250" width="140" height="90" as="geometry" />
        </mxCell>
        <mxCell id="1aF113buXw0eMV6wPPo_-133" value="ID" style="text;strokeColor=none;fillColor=none;align=left;verticalAlign=middle;spacingLeft=4;spacingRight=4;overflow=hidden;points=[[0,0.5],[1,0.5]];portConstraint=eastwest;rotatable=0;whiteSpace=wrap;html=1;" vertex="1" parent="1aF113buXw0eMV6wPPo_-132">
          <mxGeometry y="30" width="140" height="30" as="geometry" />
        </mxCell>
        <mxCell id="1aF113buXw0eMV6wPPo_-134" value="NAME" style="text;strokeColor=none;fillColor=none;align=left;verticalAlign=middle;spacingLeft=4;spacingRight=4;overflow=hidden;points=[[0,0.5],[1,0.5]];portConstraint=eastwest;rotatable=0;whiteSpace=wrap;html=1;" vertex="1" parent="1aF113buXw0eMV6wPPo_-132">
          <mxGeometry y="60" width="140" height="30" as="geometry" />
        </mxCell>
        <mxCell id="1aF113buXw0eMV6wPPo_-136" value="Aircraft" style="swimlane;fontStyle=0;childLayout=stackLayout;horizontal=1;startSize=30;horizontalStack=0;resizeParent=1;resizeParentMax=0;resizeLast=0;collapsible=1;marginBottom=0;whiteSpace=wrap;html=1;" vertex="1" parent="1">
          <mxGeometry x="280" y="1440" width="140" height="120" as="geometry" />
        </mxCell>
        <mxCell id="1aF113buXw0eMV6wPPo_-137" value="name" style="text;strokeColor=none;fillColor=none;align=left;verticalAlign=middle;spacingLeft=4;spacingRight=4;overflow=hidden;points=[[0,0.5],[1,0.5]];portConstraint=eastwest;rotatable=0;whiteSpace=wrap;html=1;" vertex="1" parent="1aF113buXw0eMV6wPPo_-136">
          <mxGeometry y="30" width="140" height="30" as="geometry" />
        </mxCell>
        <mxCell id="1aF113buXw0eMV6wPPo_-138" value="repair" style="text;strokeColor=none;fillColor=none;align=left;verticalAlign=middle;spacingLeft=4;spacingRight=4;overflow=hidden;points=[[0,0.5],[1,0.5]];portConstraint=eastwest;rotatable=0;whiteSpace=wrap;html=1;" vertex="1" parent="1aF113buXw0eMV6wPPo_-136">
          <mxGeometry y="60" width="140" height="30" as="geometry" />
        </mxCell>
        <mxCell id="1aF113buXw0eMV6wPPo_-139" value="landed" style="text;strokeColor=none;fillColor=none;align=left;verticalAlign=middle;spacingLeft=4;spacingRight=4;overflow=hidden;points=[[0,0.5],[1,0.5]];portConstraint=eastwest;rotatable=0;whiteSpace=wrap;html=1;" vertex="1" parent="1aF113buXw0eMV6wPPo_-136">
          <mxGeometry y="90" width="140" height="30" as="geometry" />
        </mxCell>
        <mxCell id="1aF113buXw0eMV6wPPo_-140" value="Pilot" style="swimlane;fontStyle=0;childLayout=stackLayout;horizontal=1;startSize=30;horizontalStack=0;resizeParent=1;resizeParentMax=0;resizeLast=0;collapsible=1;marginBottom=0;whiteSpace=wrap;html=1;" vertex="1" parent="1">
          <mxGeometry x="570" y="1450" width="140" height="60" as="geometry" />
        </mxCell>
        <mxCell id="1aF113buXw0eMV6wPPo_-141" value="name" style="text;strokeColor=none;fillColor=none;align=left;verticalAlign=middle;spacingLeft=4;spacingRight=4;overflow=hidden;points=[[0,0.5],[1,0.5]];portConstraint=eastwest;rotatable=0;whiteSpace=wrap;html=1;" vertex="1" parent="1aF113buXw0eMV6wPPo_-140">
          <mxGeometry y="30" width="140" height="30" as="geometry" />
        </mxCell>
        <mxCell id="1aF113buXw0eMV6wPPo_-144" value="Pilot1" style="swimlane;fontStyle=0;childLayout=stackLayout;horizontal=1;startSize=30;horizontalStack=0;resizeParent=1;resizeParentMax=0;resizeLast=0;collapsible=1;marginBottom=0;whiteSpace=wrap;html=1;" vertex="1" parent="1">
          <mxGeometry x="390" y="1650" width="140" height="60" as="geometry" />
        </mxCell>
        <mxCell id="1aF113buXw0eMV6wPPo_-148" value="Pilot2" style="swimlane;fontStyle=0;childLayout=stackLayout;horizontal=1;startSize=30;horizontalStack=0;resizeParent=1;resizeParentMax=0;resizeLast=0;collapsible=1;marginBottom=0;whiteSpace=wrap;html=1;" vertex="1" parent="1">
          <mxGeometry x="590" y="1610" width="140" height="60" as="geometry" />
        </mxCell>
        <mxCell id="1aF113buXw0eMV6wPPo_-149" value="Pilot3" style="swimlane;fontStyle=0;childLayout=stackLayout;horizontal=1;startSize=30;horizontalStack=0;resizeParent=1;resizeParentMax=0;resizeLast=0;collapsible=1;marginBottom=0;whiteSpace=wrap;html=1;" vertex="1" parent="1">
          <mxGeometry x="790" y="1610" width="140" height="60" as="geometry" />
        </mxCell>
        <mxCell id="1aF113buXw0eMV6wPPo_-150" value="" style="triangle;whiteSpace=wrap;html=1;rotation=-90;" vertex="1" parent="1">
          <mxGeometry x="625" y="1510" width="30" height="30" as="geometry" />
        </mxCell>
        <mxCell id="1aF113buXw0eMV6wPPo_-152" value="Aircraft Type" style="swimlane;fontStyle=0;childLayout=stackLayout;horizontal=1;startSize=30;horizontalStack=0;resizeParent=1;resizeParentMax=0;resizeLast=0;collapsible=1;marginBottom=0;whiteSpace=wrap;html=1;" vertex="1" parent="1">
          <mxGeometry x="80" y="1590" width="140" height="60" as="geometry" />
        </mxCell>
        <mxCell id="1aF113buXw0eMV6wPPo_-153" value="name" style="text;strokeColor=none;fillColor=none;align=left;verticalAlign=middle;spacingLeft=4;spacingRight=4;overflow=hidden;points=[[0,0.5],[1,0.5]];portConstraint=eastwest;rotatable=0;whiteSpace=wrap;html=1;" vertex="1" parent="1aF113buXw0eMV6wPPo_-152">
          <mxGeometry y="30" width="140" height="30" as="geometry" />
        </mxCell>
        <mxCell id="1aF113buXw0eMV6wPPo_-156" value="" style="endArrow=none;html=1;rounded=0;exitX=1.007;exitY=0.067;exitDx=0;exitDy=0;exitPerimeter=0;entryX=0;entryY=0.5;entryDx=0;entryDy=0;" edge="1" parent="1" source="1aF113buXw0eMV6wPPo_-126" target="1aF113buXw0eMV6wPPo_-138">
          <mxGeometry width="50" height="50" relative="1" as="geometry">
            <mxPoint x="240" y="1540" as="sourcePoint" />
            <mxPoint x="290" y="1490" as="targetPoint" />
          </mxGeometry>
        </mxCell>
        <mxCell id="1aF113buXw0eMV6wPPo_-157" value="" style="endArrow=none;html=1;rounded=0;exitX=0.993;exitY=0.067;exitDx=0;exitDy=0;exitPerimeter=0;entryX=0;entryY=0.5;entryDx=0;entryDy=0;" edge="1" parent="1" source="1aF113buXw0eMV6wPPo_-126" target="1aF113buXw0eMV6wPPo_-130">
          <mxGeometry width="50" height="50" relative="1" as="geometry">
            <mxPoint x="240" y="1540" as="sourcePoint" />
            <mxPoint x="290" y="1490" as="targetPoint" />
          </mxGeometry>
        </mxCell>
        <mxCell id="1aF113buXw0eMV6wPPo_-158" value="" style="endArrow=none;html=1;rounded=0;entryX=0.457;entryY=1.067;entryDx=0;entryDy=0;entryPerimeter=0;exitX=1;exitY=0.5;exitDx=0;exitDy=0;" edge="1" parent="1" source="1aF113buXw0eMV6wPPo_-138" target="1aF113buXw0eMV6wPPo_-131">
          <mxGeometry width="50" height="50" relative="1" as="geometry">
            <mxPoint x="240" y="1540" as="sourcePoint" />
            <mxPoint x="290" y="1490" as="targetPoint" />
          </mxGeometry>
        </mxCell>
        <mxCell id="1aF113buXw0eMV6wPPo_-159" value="" style="endArrow=none;html=1;rounded=0;exitX=1.007;exitY=0;exitDx=0;exitDy=0;exitPerimeter=0;entryX=-0.007;entryY=1.067;entryDx=0;entryDy=0;entryPerimeter=0;" edge="1" parent="1" source="1aF113buXw0eMV6wPPo_-153" target="1aF113buXw0eMV6wPPo_-138">
          <mxGeometry width="50" height="50" relative="1" as="geometry">
            <mxPoint x="240" y="1540" as="sourcePoint" />
            <mxPoint x="290" y="1490" as="targetPoint" />
          </mxGeometry>
        </mxCell>
        <mxCell id="1aF113buXw0eMV6wPPo_-160" value="" style="endArrow=none;html=1;rounded=0;exitX=0.379;exitY=0.967;exitDx=0;exitDy=0;exitPerimeter=0;entryX=0;entryY=0.75;entryDx=0;entryDy=0;" edge="1" parent="1" source="1aF113buXw0eMV6wPPo_-153" target="1aF113buXw0eMV6wPPo_-144">
          <mxGeometry width="50" height="50" relative="1" as="geometry">
            <mxPoint x="240" y="1540" as="sourcePoint" />
            <mxPoint x="290" y="1490" as="targetPoint" />
          </mxGeometry>
        </mxCell>
        <mxCell id="1aF113buXw0eMV6wPPo_-161" value="" style="endArrow=none;html=1;rounded=0;exitX=0.436;exitY=-0.05;exitDx=0;exitDy=0;exitPerimeter=0;entryX=0;entryY=-0.067;entryDx=0;entryDy=0;entryPerimeter=0;" edge="1" parent="1" source="1aF113buXw0eMV6wPPo_-144" target="1aF113buXw0eMV6wPPo_-150">
          <mxGeometry width="50" height="50" relative="1" as="geometry">
            <mxPoint x="240" y="1540" as="sourcePoint" />
            <mxPoint x="290" y="1490" as="targetPoint" />
          </mxGeometry>
        </mxCell>
        <mxCell id="1aF113buXw0eMV6wPPo_-162" value="" style="endArrow=none;html=1;rounded=0;exitX=0.5;exitY=0;exitDx=0;exitDy=0;entryX=0;entryY=0.5;entryDx=0;entryDy=0;" edge="1" parent="1" source="1aF113buXw0eMV6wPPo_-148" target="1aF113buXw0eMV6wPPo_-150">
          <mxGeometry width="50" height="50" relative="1" as="geometry">
            <mxPoint x="240" y="1540" as="sourcePoint" />
            <mxPoint x="290" y="1490" as="targetPoint" />
          </mxGeometry>
        </mxCell>
        <mxCell id="1aF113buXw0eMV6wPPo_-163" value="" style="endArrow=none;html=1;rounded=0;entryX=0;entryY=0.75;entryDx=0;entryDy=0;exitX=0.5;exitY=0;exitDx=0;exitDy=0;" edge="1" parent="1" source="1aF113buXw0eMV6wPPo_-149" target="1aF113buXw0eMV6wPPo_-150">
          <mxGeometry width="50" height="50" relative="1" as="geometry">
            <mxPoint x="460" y="1590" as="sourcePoint" />
            <mxPoint x="510" y="1540" as="targetPoint" />
          </mxGeometry>
        </mxCell>
        <mxCell id="1aF113buXw0eMV6wPPo_-164" value="" style="endArrow=none;html=1;rounded=0;entryX=0.479;entryY=1.067;entryDx=0;entryDy=0;entryPerimeter=0;exitX=0.429;exitY=0;exitDx=0;exitDy=0;exitPerimeter=0;" edge="1" parent="1" source="1aF113buXw0eMV6wPPo_-140" target="1aF113buXw0eMV6wPPo_-131">
          <mxGeometry width="50" height="50" relative="1" as="geometry">
            <mxPoint x="460" y="1490" as="sourcePoint" />
            <mxPoint x="510" y="1440" as="targetPoint" />
          </mxGeometry>
        </mxCell>
        <mxCell id="1aF113buXw0eMV6wPPo_-165" value="" style="endArrow=none;html=1;rounded=0;entryX=1;entryY=0.5;entryDx=0;entryDy=0;exitX=-0.014;exitY=0.1;exitDx=0;exitDy=0;exitPerimeter=0;" edge="1" parent="1" source="1aF113buXw0eMV6wPPo_-134" target="1aF113buXw0eMV6wPPo_-130">
          <mxGeometry width="50" height="50" relative="1" as="geometry">
            <mxPoint x="460" y="1490" as="sourcePoint" />
            <mxPoint x="510" y="1440" as="targetPoint" />
          </mxGeometry>
        </mxCell>
        <mxCell id="1aF113buXw0eMV6wPPo_-166" value="" style="endArrow=none;html=1;rounded=0;entryX=1;entryY=0.5;entryDx=0;entryDy=0;exitX=0;exitY=0.5;exitDx=0;exitDy=0;" edge="1" parent="1" source="1aF113buXw0eMV6wPPo_-134" target="1aF113buXw0eMV6wPPo_-131">
          <mxGeometry width="50" height="50" relative="1" as="geometry">
            <mxPoint x="460" y="1490" as="sourcePoint" />
            <mxPoint x="510" y="1440" as="targetPoint" />
          </mxGeometry>
        </mxCell>
        <mxCell id="1aF113buXw0eMV6wPPo_-167" value="" style="endArrow=none;html=1;rounded=0;exitX=1;exitY=0;exitDx=0;exitDy=0;exitPerimeter=0;entryX=-0.021;entryY=0.4;entryDx=0;entryDy=0;entryPerimeter=0;" edge="1" parent="1" source="1aF113buXw0eMV6wPPo_-153" target="1aF113buXw0eMV6wPPo_-140">
          <mxGeometry width="50" height="50" relative="1" as="geometry">
            <mxPoint x="460" y="1490" as="sourcePoint" />
            <mxPoint x="510" y="1440" as="targetPoint" />
            <Array as="points">
              <mxPoint x="430" y="1570" />
            </Array>
          </mxGeometry>
        </mxCell>
        <mxCell id="1aF113buXw0eMV6wPPo_-168" value="" style="endArrow=none;html=1;rounded=0;exitX=0.971;exitY=0.2;exitDx=0;exitDy=0;exitPerimeter=0;entryX=0;entryY=0.5;entryDx=0;entryDy=0;" edge="1" parent="1" source="1aF113buXw0eMV6wPPo_-153" target="1aF113buXw0eMV6wPPo_-141">
          <mxGeometry width="50" height="50" relative="1" as="geometry">
            <mxPoint x="460" y="1490" as="sourcePoint" />
            <mxPoint x="510" y="1440" as="targetPoint" />
            <Array as="points">
              <mxPoint x="440" y="1610" />
            </Array>
          </mxGeometry>
        </mxCell>
        <mxCell id="1aF113buXw0eMV6wPPo_-169" value="offers" style="text;strokeColor=none;align=center;fillColor=none;html=1;verticalAlign=middle;whiteSpace=wrap;rounded=0;" vertex="1" parent="1">
          <mxGeometry x="320" y="1300" width="60" height="30" as="geometry" />
        </mxCell>
        <mxCell id="1aF113buXw0eMV6wPPo_-170" value="own" style="text;strokeColor=none;align=center;fillColor=none;html=1;verticalAlign=middle;whiteSpace=wrap;rounded=0;" vertex="1" parent="1">
          <mxGeometry x="250" y="1380" width="60" height="30" as="geometry" />
        </mxCell>
        <mxCell id="1aF113buXw0eMV6wPPo_-171" value="uses" style="text;strokeColor=none;align=center;fillColor=none;html=1;verticalAlign=middle;whiteSpace=wrap;rounded=0;" vertex="1" parent="1">
          <mxGeometry x="420" y="1410" width="60" height="30" as="geometry" />
        </mxCell>
        <mxCell id="1aF113buXw0eMV6wPPo_-172" value="type" style="text;strokeColor=none;align=center;fillColor=none;html=1;verticalAlign=middle;whiteSpace=wrap;rounded=0;" vertex="1" parent="1">
          <mxGeometry x="210" y="1550" width="60" height="30" as="geometry" />
        </mxCell>
        <mxCell id="1aF113buXw0eMV6wPPo_-174" value="Navigation of" style="text;strokeColor=none;align=center;fillColor=none;html=1;verticalAlign=middle;whiteSpace=wrap;rounded=0;" vertex="1" parent="1">
          <mxGeometry x="420" y="1520" width="60" height="30" as="geometry" />
        </mxCell>
        <mxCell id="1aF113buXw0eMV6wPPo_-175" value="copilot of" style="text;strokeColor=none;align=center;fillColor=none;html=1;verticalAlign=middle;whiteSpace=wrap;rounded=0;" vertex="1" parent="1">
          <mxGeometry x="400" y="1580" width="60" height="30" as="geometry" />
        </mxCell>
        <mxCell id="1aF113buXw0eMV6wPPo_-176" value="Captain" style="text;strokeColor=none;align=center;fillColor=none;html=1;verticalAlign=middle;whiteSpace=wrap;rounded=0;" vertex="1" parent="1">
          <mxGeometry x="240" y="1650" width="60" height="30" as="geometry" />
        </mxCell>
        <mxCell id="1aF113buXw0eMV6wPPo_-177" value="Driven by" style="text;strokeColor=none;align=center;fillColor=none;html=1;verticalAlign=middle;whiteSpace=wrap;rounded=0;" vertex="1" parent="1">
          <mxGeometry x="570" y="1400" width="60" height="30" as="geometry" />
        </mxCell>
        <mxCell id="1aF113buXw0eMV6wPPo_-178" value="Arrives at" style="text;strokeColor=none;align=center;fillColor=none;html=1;verticalAlign=middle;whiteSpace=wrap;rounded=0;" vertex="1" parent="1">
          <mxGeometry x="595" y="1290" width="60" height="30" as="geometry" />
        </mxCell>
        <mxCell id="1aF113buXw0eMV6wPPo_-179" value="Depart at" style="text;strokeColor=none;align=center;fillColor=none;html=1;verticalAlign=middle;whiteSpace=wrap;rounded=0;" vertex="1" parent="1">
          <mxGeometry x="600" y="1340" width="60" height="30" as="geometry" />
        </mxCell>
        <mxCell id="1aF113buXw0eMV6wPPo_-180" value="1" style="text;strokeColor=none;align=center;fillColor=none;html=1;verticalAlign=middle;whiteSpace=wrap;rounded=0;" vertex="1" parent="1">
          <mxGeometry x="240" y="1320" width="60" height="30" as="geometry" />
        </mxCell>
        <mxCell id="1aF113buXw0eMV6wPPo_-181" value="1" style="text;strokeColor=none;align=center;fillColor=none;html=1;verticalAlign=middle;whiteSpace=wrap;rounded=0;" vertex="1" parent="1">
          <mxGeometry x="200" y="1580" width="60" height="30" as="geometry" />
        </mxCell>
        <mxCell id="1aF113buXw0eMV6wPPo_-182" value="1" style="text;strokeColor=none;align=center;fillColor=none;html=1;verticalAlign=middle;whiteSpace=wrap;rounded=0;" vertex="1" parent="1">
          <mxGeometry x="330" y="1665" width="60" height="30" as="geometry" />
        </mxCell>
        <mxCell id="1aF113buXw0eMV6wPPo_-183" value="1" style="text;strokeColor=none;align=center;fillColor=none;html=1;verticalAlign=middle;whiteSpace=wrap;rounded=0;" vertex="1" parent="1">
          <mxGeometry x="380" y="1410" width="60" height="30" as="geometry" />
        </mxCell>
        <mxCell id="1aF113buXw0eMV6wPPo_-187" value="1" style="text;strokeColor=none;align=center;fillColor=none;html=1;verticalAlign=middle;whiteSpace=wrap;rounded=0;" vertex="1" parent="1">
          <mxGeometry x="630" y="1330" width="60" height="30" as="geometry" />
        </mxCell>
        <mxCell id="1aF113buXw0eMV6wPPo_-188" value="1" style="text;strokeColor=none;align=center;fillColor=none;html=1;verticalAlign=middle;whiteSpace=wrap;rounded=0;" vertex="1" parent="1">
          <mxGeometry x="640" y="1290" width="40" height="30" as="geometry" />
        </mxCell>
        <mxCell id="1aF113buXw0eMV6wPPo_-189" value="*" style="text;strokeColor=none;align=center;fillColor=none;html=1;verticalAlign=middle;whiteSpace=wrap;rounded=0;" vertex="1" parent="1">
          <mxGeometry x="380" y="1295" width="60" height="30" as="geometry" />
        </mxCell>
        <mxCell id="1aF113buXw0eMV6wPPo_-190" value="*" style="text;strokeColor=none;align=center;fillColor=none;html=1;verticalAlign=middle;whiteSpace=wrap;rounded=0;fontSize=26;" vertex="1" parent="1">
          <mxGeometry x="450" y="1370" width="60" height="30" as="geometry" />
        </mxCell>
        <mxCell id="1aF113buXw0eMV6wPPo_-191" value="*" style="text;strokeColor=none;align=center;fillColor=none;html=1;verticalAlign=middle;whiteSpace=wrap;rounded=0;fontSize=26;" vertex="1" parent="1">
          <mxGeometry x="380" y="1300" width="60" height="30" as="geometry" />
        </mxCell>
        <mxCell id="1aF113buXw0eMV6wPPo_-192" value="*" style="text;strokeColor=none;align=center;fillColor=none;html=1;verticalAlign=middle;whiteSpace=wrap;rounded=0;fontSize=26;" vertex="1" parent="1">
          <mxGeometry x="220" y="1370" width="60" height="30" as="geometry" />
        </mxCell>
        <mxCell id="1aF113buXw0eMV6wPPo_-193" value="*" style="text;strokeColor=none;align=center;fillColor=none;html=1;verticalAlign=middle;whiteSpace=wrap;rounded=0;fontSize=26;" vertex="1" parent="1">
          <mxGeometry x="230" y="1490" width="60" height="30" as="geometry" />
        </mxCell>
        <mxCell id="1aF113buXw0eMV6wPPo_-194" value="*" style="text;strokeColor=none;align=center;fillColor=none;html=1;verticalAlign=middle;whiteSpace=wrap;rounded=0;fontSize=26;" vertex="1" parent="1">
          <mxGeometry x="240" y="1550" width="60" height="30" as="geometry" />
        </mxCell>
        <mxCell id="1aF113buXw0eMV6wPPo_-195" value="*" style="text;strokeColor=none;align=center;fillColor=none;html=1;verticalAlign=middle;whiteSpace=wrap;rounded=0;fontSize=26;" vertex="1" parent="1">
          <mxGeometry x="230" y="1580" width="60" height="30" as="geometry" />
        </mxCell>
        <mxCell id="1aF113buXw0eMV6wPPo_-198" value="*" style="text;strokeColor=none;align=center;fillColor=none;html=1;verticalAlign=middle;whiteSpace=wrap;rounded=0;fontSize=26;" vertex="1" parent="1">
          <mxGeometry x="230" y="1620" width="60" height="30" as="geometry" />
        </mxCell>
        <mxCell id="1aF113buXw0eMV6wPPo_-199" value="*" style="text;strokeColor=none;align=center;fillColor=none;html=1;verticalAlign=middle;whiteSpace=wrap;rounded=0;fontSize=26;" vertex="1" parent="1">
          <mxGeometry x="100" y="1660" width="60" height="30" as="geometry" />
        </mxCell>
        <mxCell id="1aF113buXw0eMV6wPPo_-200" value="*" style="text;strokeColor=none;align=center;fillColor=none;html=1;verticalAlign=middle;whiteSpace=wrap;rounded=0;fontSize=26;" vertex="1" parent="1">
          <mxGeometry x="530" y="1460" width="60" height="30" as="geometry" />
        </mxCell>
        <mxCell id="1aF113buXw0eMV6wPPo_-201" value="*" style="text;strokeColor=none;align=center;fillColor=none;html=1;verticalAlign=middle;whiteSpace=wrap;rounded=0;fontSize=26;" vertex="1" parent="1">
          <mxGeometry x="560" y="1295" width="60" height="30" as="geometry" />
        </mxCell>
        <mxCell id="1aF113buXw0eMV6wPPo_-202" value="*" style="text;strokeColor=none;align=center;fillColor=none;html=1;verticalAlign=middle;whiteSpace=wrap;rounded=0;fontSize=26;" vertex="1" parent="1">
          <mxGeometry x="570" y="1350" width="60" height="30" as="geometry" />
        </mxCell>
        <mxCell id="1aF113buXw0eMV6wPPo_-203" value="1...n" style="text;strokeColor=none;align=center;fillColor=none;html=1;verticalAlign=middle;whiteSpace=wrap;rounded=0;" vertex="1" parent="1">
          <mxGeometry x="520" y="1510" width="60" height="30" as="geometry" />
        </mxCell>
        <mxCell id="1aF113buXw0eMV6wPPo_-204" value="2..n" style="text;strokeColor=none;align=center;fillColor=none;html=1;verticalAlign=middle;whiteSpace=wrap;rounded=0;" vertex="1" parent="1">
          <mxGeometry x="610" y="1420" width="60" height="30" as="geometry" />
        </mxCell>
      </root>
    </mxGraphModel>
  </diagram>
</mxfile>
